<svg width="597" height="214" viewBox="0 0 597 214" fill="none" xmlns="http://www.w3.org/2000/svg">
<path d="M362.948 59.8149C362.948 59.8149 363.879 60.6785 363.709 61.1681C363.315 62.2901 361.547 62.8138 360.398 62.5009C358.562 62.0045 356.889 59.8965 356.902 57.9992C356.93 55.2111 359.779 52.9535 362.145 51.4778C364.58 49.9614 367.681 49.5466 370.55 49.5942C373.672 49.6486 377.011 50.2402 379.629 51.947C381.084 52.8991 382.288 54.4019 382.852 56.0476C383.172 56.9792 382.852 59.0056 382.852 59.0056C382.852 59.0056 385.422 55.4627 386.347 53.4907C387.456 51.1446 389.081 48.6693 388.768 46.0989C388.625 44.9224 387.843 43.7732 386.885 43.0728C383.804 40.8287 379.601 40.4411 375.793 40.3187C371.856 40.1895 367.858 41.0259 364.165 42.3996C361.649 43.338 359.187 44.6572 357.242 46.5001C355.046 48.5741 352.945 51.1038 352.203 54.0279C351.721 55.9252 351.823 58.1488 352.741 59.8761C353.57 61.4401 355.202 62.5758 356.841 63.2354C358.446 63.8814 360.37 64.1738 362.016 63.6366C363.104 63.283 364.6 62.5622 364.641 61.4197C364.682 59.7469 362.948 59.8149 362.948 59.8149Z" fill="#0093DD"/>
<path d="M362.037 60.8077C362.037 60.8077 361.792 60.0597 362.002 59.7877C362.342 59.3525 363.097 59.2369 363.621 59.4273C364.369 59.7129 365.042 60.5629 365.042 61.3585C365.042 62.3853 364.145 63.3782 363.227 63.8474C361.227 64.8606 358.623 64.575 356.501 63.8474C354.706 63.2286 352.945 61.9977 351.999 60.3521C350.626 57.9584 350.306 54.8371 350.925 52.151C351.557 49.4038 353.597 47.1053 355.563 45.0924C357.678 42.9232 360.234 41.0871 363.023 39.9175C366.219 38.5778 369.782 38.2174 373.243 37.9658C376.222 37.755 379.255 37.8162 382.186 38.367C384.022 38.7139 385.885 39.2307 387.496 40.1827C388.129 40.5567 389.135 41.6651 389.135 41.6651C389.135 41.6651 388.693 36.0074 387.83 33.3281C387.082 31.0092 386.293 28.4931 384.538 26.8067C383.294 25.6099 381.519 25.0183 379.833 24.6578C376.63 23.971 373.236 24.141 370.02 24.719C366.259 25.3991 362.628 26.8611 359.255 28.67C356.1 30.3564 353.128 32.4849 350.592 35.0077C348.511 37.075 346.552 39.3939 345.349 42.0664C344.138 44.7592 343.513 47.7853 343.533 50.7366C343.547 53.1031 344.036 55.5375 345.077 57.6592C346.049 59.6449 347.613 61.3517 349.313 62.7662C350.796 63.997 352.537 64.9558 354.352 65.5814C356.066 66.1663 357.922 66.4995 359.731 66.3975C361.846 66.2751 364.26 66.1119 365.879 64.7382C366.824 63.9358 367.504 62.5826 367.409 61.3517C367.341 60.4881 366.722 59.6313 365.981 59.1689C365.171 58.6656 364.07 58.3596 363.152 58.6044C362.302 58.8356 361.588 59.2913 361.479 59.9985C361.424 60.3453 362.043 60.8077 362.037 60.8077Z" fill="#00458E"/>
<path d="M362.322 61.4061C362.322 61.4061 361.016 61.1409 360.676 60.6581C360.187 59.9509 360.221 58.958 360.704 58.2508C361.492 57.0812 363.179 56.6324 364.587 56.578C366.967 56.4828 369.877 56.9996 371.366 58.8629C372.604 60.4201 372.856 63.0246 371.958 64.7994C371.053 66.5811 368.714 67.2747 366.797 67.8459C363.805 68.7435 360.52 68.7911 357.433 68.3015C354.243 67.7983 351.129 66.5607 348.375 64.8742C345.335 63.0178 342.554 60.5901 340.459 57.7136C338.209 54.6331 336.529 51.0154 335.74 47.2889C335.026 43.9092 335.121 40.3187 335.815 36.9322C336.604 33.0969 338.134 29.452 340.31 26.1947C341.969 23.7194 344.2 21.6046 346.627 19.8773C348.81 18.3269 351.319 17.232 353.863 16.3752C355.923 15.6816 358.086 15.1988 360.262 15.0832C362.961 14.9404 365.695 15.26 368.333 15.8448C370.544 16.3344 372.726 17.0688 374.732 18.1296C377.092 19.3809 381.206 22.849 381.206 22.849C381.206 22.849 372.869 22.0534 368.796 22.7742C363.995 23.6242 359.255 25.3447 355.093 27.8743C351.993 29.758 349.259 32.3217 347.022 35.1845C345.233 37.4762 343.812 40.1079 342.914 42.8756C342.003 45.6841 341.52 48.6897 341.697 51.6342C341.819 53.6267 342.336 55.6327 343.22 57.4212C344.097 59.2097 345.383 60.8281 346.872 62.1405C348.817 63.8406 351.061 65.1598 353.495 66.0235C355.454 66.7171 357.582 66.9619 359.663 66.9347C361.438 66.9143 363.335 66.8327 364.92 66.0235C366.246 65.3434 367.667 64.3234 368.116 62.9022C368.483 61.7461 368.259 60.2433 367.47 59.3253C366.688 58.4208 365.267 58.1828 364.07 58.1828C363.192 58.1828 362.206 58.414 361.574 59.0193C361.22 59.3593 361.037 59.7945 361.166 60.2637C361.282 60.7941 362.322 61.4129 362.322 61.4061Z" fill="#28166F"/>
<path d="M347.953 76.4754C347.953 75.8769 347.899 75.3533 347.783 74.8977C347.668 74.4353 347.45 73.9933 347.124 73.5853C346.797 73.1705 346.396 72.8577 345.913 72.6401C345.437 72.4224 344.934 72.3136 344.39 72.3136C343.241 72.3136 342.336 72.7149 341.67 73.5241C341.01 74.3197 340.684 75.3941 340.684 76.7338C340.684 78.0258 341.038 79.039 341.738 79.7735C342.398 80.4603 343.241 80.8003 344.274 80.8003C345.512 80.8003 346.471 80.2631 347.158 79.1954C347.681 78.3522 347.953 77.4546 347.953 76.4754ZM344.227 81.2287C342.765 81.2287 341.588 80.8071 340.697 79.9639C339.82 79.1138 339.385 77.9782 339.385 76.5706C339.385 75.1561 339.854 74.0137 340.793 73.1365C341.697 72.2932 342.846 71.8716 344.254 71.8716C345.621 71.8716 346.763 72.2252 347.674 72.9393C348.715 73.7553 349.238 74.8977 349.238 76.3734C349.238 77.8286 348.776 79.005 347.845 79.9027C346.92 80.7867 345.709 81.2287 344.227 81.2287Z" fill="#00458E"/>
<path d="M359.493 72.0824H359.772C359.956 73.8301 360.071 74.8977 360.112 75.2921C360.255 76.5842 360.364 77.5838 360.452 78.3046C360.547 79.0118 360.677 79.9435 360.833 81.0791L360.214 81.0383L359.595 81.0791C359.514 80.2019 359.439 79.3655 359.371 78.563C359.31 77.7674 359.235 76.9786 359.146 76.1966C359.065 75.4145 358.99 74.7821 358.922 74.2857C358.385 75.2513 357.922 76.0946 357.528 76.8086C357.072 77.6518 356.692 78.3794 356.386 78.9914C356.052 79.6647 355.746 80.3107 355.474 80.9227H355.332L354.611 79.4335C354.298 78.7738 354.012 78.2094 353.768 77.7334C353.523 77.2506 353.217 76.6658 352.856 75.9858C352.55 75.4145 352.244 74.8433 351.945 74.2721C351.795 75.5233 351.653 76.795 351.51 78.0734C351.367 79.3519 351.299 80.3515 351.299 81.0587L350.837 81.0179L350.361 81.0587C350.544 79.9163 350.789 78.2978 351.081 76.2034C351.381 74.0953 351.557 72.7149 351.619 72.062H351.959C352.414 72.9597 352.788 73.6873 353.074 74.2585C353.427 74.9317 353.842 75.7069 354.318 76.5842C354.842 77.543 355.298 78.3318 355.672 78.9506C356.936 76.6522 358.194 74.3537 359.459 72.0552L359.493 72.0824ZM362.744 81.0927V72.096L363.322 72.1368L363.9 72.096V81.0927L363.322 81.0519L362.744 81.0927ZM374.093 72.0824V81.0791H373.699L373.012 80.2767L367.327 73.9865H367.198V81.0791L366.831 81.0383L366.464 81.0791V72.0824H366.974L373.223 78.8554H373.352V72.0824L373.719 72.1232L374.093 72.0824ZM376.562 81.0927V72.096H381.234L381.193 72.4904L381.234 72.8849C380.968 72.8305 380.758 72.7965 380.588 72.7761C380.418 72.7489 380.241 72.7353 380.05 72.7353L378.738 72.7081H377.725V76.0062H379.765C379.928 76.0062 380.152 75.9994 380.424 75.979C380.703 75.9518 380.873 75.9382 380.934 75.9382L380.894 76.2782L380.934 76.6454C380.778 76.6454 380.56 76.6386 380.275 76.6182C379.996 76.591 379.826 76.5774 379.765 76.5774H377.725V81.0791L377.147 81.0383L376.562 81.0927Z" fill="#00458E"/>
<path d="M391.08 76.4754C391.08 75.8769 391.026 75.3533 390.91 74.8977C390.794 74.4353 390.577 73.9933 390.251 73.5853C389.924 73.1705 389.523 72.8577 389.04 72.6401C388.564 72.4224 388.061 72.3136 387.517 72.3136C386.368 72.3136 385.463 72.7149 384.797 73.5241C384.137 74.3197 383.811 75.3941 383.811 76.7338C383.811 78.0258 384.164 79.039 384.865 79.7735C385.524 80.4603 386.368 80.8003 387.401 80.8003C388.639 80.8003 389.598 80.2631 390.285 79.1954C390.815 78.3522 391.08 77.4546 391.08 76.4754ZM387.36 81.2287C385.898 81.2287 384.722 80.8071 383.831 79.9639C382.954 79.1138 382.519 77.9782 382.519 76.5706C382.519 75.1561 382.988 74.0137 383.926 73.1365C384.831 72.2932 385.98 71.8716 387.388 71.8716C388.754 71.8716 389.897 72.2252 390.808 72.9393C391.849 73.7553 392.372 74.8977 392.372 76.3734C392.372 77.8286 391.91 79.005 390.978 79.9027C390.046 80.7867 388.843 81.2287 387.36 81.2287Z" fill="#00458E"/>
<path d="M338.453 72.0824L335.468 74.9521L334.353 76.081C335.414 77.2914 336.481 78.495 337.549 79.6987L338.617 81.0111V81.0791L337.896 81.0383L337.161 81.0791C337.019 80.8751 336.869 80.6779 336.713 80.4739C336.563 80.2631 336.407 80.0659 336.25 79.8755L333.38 76.523C333.34 76.489 333.278 76.4686 333.21 76.455C333.176 76.4618 333.156 76.4754 333.156 76.4822V81.0723L332.578 81.0315L332 81.0723V72.0756L332.578 72.1164L333.156 72.0756V76.1422C333.163 76.1762 333.204 76.183 333.272 76.1694C333.353 76.149 333.428 76.115 333.496 76.0606C333.564 75.9994 333.714 75.8634 333.931 75.6525C334.013 75.5709 334.094 75.4961 334.183 75.4145L337.42 72.0756L337.943 72.1164L338.453 72.0824Z" fill="#00458E"/>
<path d="M418 70.6065V25.6572H431.893C437.136 25.6572 441.08 26.6092 443.752 28.5269C446.432 30.4377 447.771 33.2802 447.771 37.0475C447.771 39.346 447.159 41.2908 445.942 42.8889C444.711 44.5005 442.875 45.7382 440.407 46.6222C443.147 47.2478 445.282 48.5194 446.84 50.4507C448.397 52.3887 449.172 54.7484 449.172 57.5297C449.172 61.8478 447.574 65.1051 444.378 67.3084C441.182 69.5117 436.456 70.6133 430.186 70.6133L418 70.6065ZM427.779 43.4329H431.342C433.45 43.4329 435.089 42.9705 436.286 42.0456C437.469 41.1276 438.067 39.822 438.067 38.1491C438.067 36.4627 437.503 35.2386 436.374 34.4566C435.252 33.661 433.498 33.2734 431.097 33.2734H427.785V43.4329H427.779ZM427.779 62.4802H432.246C434.389 62.4802 436.075 61.9498 437.306 60.9026C438.537 59.8418 439.149 58.4069 439.149 56.5641C439.149 54.762 438.543 53.3748 437.347 52.3955C436.157 51.4095 434.45 50.9267 432.246 50.9267H427.779V62.4802Z" fill="#2C3182"/>
<path d="M497.073 70.6065V25.6572H507.674V45.2213L522.519 25.6572H535.29L518.337 47.0438L536.623 70.6065H523.675L507.674 49.8999V70.6065H497.073Z" fill="#2C3182"/>
<path d="M546.354 70.6065V35.055H531.89L539.343 25.6572H568.434V35.055H557.085V70.6065H546.354Z" fill="#2C3182"/>
<path d="M582.001 25.6572H571.27V70.6065H582.001V25.6572Z" fill="#2C3182"/>
<path d="M494.346 70.6065H483.54L471.416 46.0986L459.291 70.6065H448.485L471.416 24.2631L494.346 70.6065Z" fill="#C42226"/>
<path d="M471.416 14.2532V18.5305C475.353 18.5305 478.542 21.7198 478.542 25.6572H482.82C482.82 19.3602 477.713 14.2532 471.416 14.2532Z" fill="#2C3182"/>
<path d="M471.416 11.4039C479.29 11.4039 485.669 17.7825 485.669 25.6572H489.946C489.946 15.4229 481.65 7.12662 471.416 7.12662C461.181 7.12662 452.885 15.4229 452.885 25.6572H457.162C457.162 17.7825 463.548 11.4039 471.416 11.4039Z" fill="#C42226"/>
<path d="M471.416 0C485.587 0 497.073 11.4855 497.073 25.6572H492.795C492.795 13.852 483.221 4.27733 471.416 4.27733V0Z" fill="#2C3182"/>
<mask id="path-16-outside-1_68_3" maskUnits="userSpaceOnUse" x="3" y="92" width="594" height="63" fill="black">
<rect fill="white" x="3" y="92" width="594" height="63"/>
<path d="M5.2 95.96H23.76V118.44H29.52L40.16 95.96H58.64V99.56L46 123.24L60.48 147.4V151H41.04L29.2 129.16H23.76V151H5.2V95.96ZM91.3731 152.28C85.6131 152.28 80.4931 151.053 76.0131 148.6C71.5865 146.147 68.1198 142.76 65.6131 138.44C63.1598 134.067 61.9331 129.107 61.9331 123.56C61.9331 117.96 63.1598 112.973 65.6131 108.6C68.1198 104.227 71.5865 100.84 76.0131 98.44C80.4931 95.9867 85.6131 94.76 91.3731 94.76C97.1331 94.76 102.226 95.9867 106.653 98.44C111.133 100.84 114.6 104.227 117.053 108.6C119.56 112.92 120.813 117.907 120.813 123.56C120.813 129.107 119.56 134.067 117.053 138.44C114.6 142.76 111.133 146.147 106.653 148.6C102.173 151.053 97.0798 152.28 91.3731 152.28ZM91.3731 137.72C94.7331 137.72 97.4798 136.413 99.6131 133.8C101.8 131.187 102.893 127.747 102.893 123.48C102.893 120.653 102.386 118.147 101.373 115.96C100.413 113.72 99.0531 111.987 97.2931 110.76C95.5331 109.48 93.5331 108.84 91.2931 108.84C89.1065 108.84 87.1331 109.48 85.3731 110.76C83.6131 111.987 82.2531 113.72 81.2931 115.96C80.3331 118.147 79.8531 120.653 79.8531 123.48C79.8531 127.747 80.9198 131.187 83.0531 133.8C85.1865 136.413 87.9598 137.72 91.3731 137.72ZM128.481 95.96H144.561L166.481 125.64V95.96H180.801V151H164.801L142.721 122.36V151H128.481V95.96ZM191.216 95.96H229.856V108.12H210.656V118.12H228.176V128.2H210.656V138.84H229.856V151H191.216V95.96ZM238.794 95.96H257.354V118.44H263.114L273.754 95.96H292.234V99.56L279.594 123.24L294.074 147.4V151H274.634L262.794 129.16H257.354V151H238.794V95.96ZM307.119 108.12H295.679V95.96H337.199V108.12H325.759V151H307.119V108.12ZM344.731 95.96H363.211V151H344.731V95.96ZM368.598 95.96H386.678L395.158 130.28L403.638 95.96H422.518L405.318 151H384.918L368.598 95.96ZM427.388 95.96H445.868V151H427.388V95.96ZM464.854 108.12H453.414V95.96H494.934V108.12H483.494V151H464.854V108.12ZM508.803 95.96H533.123L549.043 151H530.243L528.163 140.44H513.923L511.603 151H493.603L508.803 95.96ZM526.243 130.6L521.043 106.52L515.603 130.6H526.243ZM571.381 152.28C563.861 152.28 557.514 150.893 552.341 148.12L556.341 135.72C561.834 137.693 566.741 138.68 571.061 138.68C573.407 138.68 575.114 138.413 576.181 137.88C577.301 137.293 577.861 136.44 577.861 135.32C577.861 134.573 577.567 133.933 576.981 133.4C576.394 132.813 575.221 132.173 573.461 131.48C571.701 130.787 569.061 129.933 565.541 128.92C561.221 127.64 557.861 125.56 555.461 122.68C553.061 119.747 551.861 116.387 551.861 112.6C551.861 106.733 553.781 102.307 557.621 99.32C561.514 96.28 566.741 94.76 573.301 94.76C576.714 94.76 580.074 95.1333 583.381 95.88C586.687 96.5733 589.621 97.6133 592.181 99L587.861 111.08C584.874 110.067 582.261 109.347 580.021 108.92C577.834 108.44 575.701 108.2 573.621 108.2C570.101 108.2 568.341 109.16 568.341 111.08C568.341 112.04 568.901 112.867 570.021 113.56C571.194 114.2 573.567 115.027 577.141 116.04C582.741 117.533 586.981 119.827 589.861 122.92C592.741 125.96 594.181 129.613 594.181 133.88C594.181 139.8 592.261 144.36 588.421 147.56C584.581 150.707 578.901 152.28 571.381 152.28Z"/>
</mask>
<path d="M5.2 95.96H23.76V118.44H29.52L40.16 95.96H58.64V99.56L46 123.24L60.48 147.4V151H41.04L29.2 129.16H23.76V151H5.2V95.96ZM91.3731 152.28C85.6131 152.28 80.4931 151.053 76.0131 148.6C71.5865 146.147 68.1198 142.76 65.6131 138.44C63.1598 134.067 61.9331 129.107 61.9331 123.56C61.9331 117.96 63.1598 112.973 65.6131 108.6C68.1198 104.227 71.5865 100.84 76.0131 98.44C80.4931 95.9867 85.6131 94.76 91.3731 94.76C97.1331 94.76 102.226 95.9867 106.653 98.44C111.133 100.84 114.6 104.227 117.053 108.6C119.56 112.92 120.813 117.907 120.813 123.56C120.813 129.107 119.56 134.067 117.053 138.44C114.6 142.76 111.133 146.147 106.653 148.6C102.173 151.053 97.0798 152.28 91.3731 152.28ZM91.3731 137.72C94.7331 137.72 97.4798 136.413 99.6131 133.8C101.8 131.187 102.893 127.747 102.893 123.48C102.893 120.653 102.386 118.147 101.373 115.96C100.413 113.72 99.0531 111.987 97.2931 110.76C95.5331 109.48 93.5331 108.84 91.2931 108.84C89.1065 108.84 87.1331 109.48 85.3731 110.76C83.6131 111.987 82.2531 113.72 81.2931 115.96C80.3331 118.147 79.8531 120.653 79.8531 123.48C79.8531 127.747 80.9198 131.187 83.0531 133.8C85.1865 136.413 87.9598 137.72 91.3731 137.72ZM128.481 95.96H144.561L166.481 125.64V95.96H180.801V151H164.801L142.721 122.36V151H128.481V95.96ZM191.216 95.96H229.856V108.12H210.656V118.12H228.176V128.2H210.656V138.84H229.856V151H191.216V95.96ZM238.794 95.96H257.354V118.44H263.114L273.754 95.96H292.234V99.56L279.594 123.24L294.074 147.4V151H274.634L262.794 129.16H257.354V151H238.794V95.96ZM307.119 108.12H295.679V95.96H337.199V108.12H325.759V151H307.119V108.12ZM344.731 95.96H363.211V151H344.731V95.96ZM368.598 95.96H386.678L395.158 130.28L403.638 95.96H422.518L405.318 151H384.918L368.598 95.96ZM427.388 95.96H445.868V151H427.388V95.96ZM464.854 108.12H453.414V95.96H494.934V108.12H483.494V151H464.854V108.12ZM508.803 95.96H533.123L549.043 151H530.243L528.163 140.44H513.923L511.603 151H493.603L508.803 95.96ZM526.243 130.6L521.043 106.52L515.603 130.6H526.243ZM571.381 152.28C563.861 152.28 557.514 150.893 552.341 148.12L556.341 135.72C561.834 137.693 566.741 138.68 571.061 138.68C573.407 138.68 575.114 138.413 576.181 137.88C577.301 137.293 577.861 136.44 577.861 135.32C577.861 134.573 577.567 133.933 576.981 133.4C576.394 132.813 575.221 132.173 573.461 131.48C571.701 130.787 569.061 129.933 565.541 128.92C561.221 127.64 557.861 125.56 555.461 122.68C553.061 119.747 551.861 116.387 551.861 112.6C551.861 106.733 553.781 102.307 557.621 99.32C561.514 96.28 566.741 94.76 573.301 94.76C576.714 94.76 580.074 95.1333 583.381 95.88C586.687 96.5733 589.621 97.6133 592.181 99L587.861 111.08C584.874 110.067 582.261 109.347 580.021 108.92C577.834 108.44 575.701 108.2 573.621 108.2C570.101 108.2 568.341 109.16 568.341 111.08C568.341 112.04 568.901 112.867 570.021 113.56C571.194 114.2 573.567 115.027 577.141 116.04C582.741 117.533 586.981 119.827 589.861 122.92C592.741 125.96 594.181 129.613 594.181 133.88C594.181 139.8 592.261 144.36 588.421 147.56C584.581 150.707 578.901 152.28 571.381 152.28Z" fill="#C32227"/>
<path d="M5.2 95.96V93.96H3.2V95.96H5.2ZM23.76 95.96H25.76V93.96H23.76V95.96ZM23.76 118.44H21.76V120.44H23.76V118.44ZM29.52 118.44V120.44H30.7861L31.3277 119.296L29.52 118.44ZM40.16 95.96V93.96H38.8939L38.3523 95.1044L40.16 95.96ZM58.64 95.96H60.64V93.96H58.64V95.96ZM58.64 99.56L60.4044 100.502L60.64 100.06V99.56H58.64ZM46 123.24L44.2356 122.298L43.7025 123.297L44.2845 124.268L46 123.24ZM60.48 147.4H62.48V146.847L62.1955 146.372L60.48 147.4ZM60.48 151V153H62.48V151H60.48ZM41.04 151L39.2818 151.953L39.8493 153H41.04V151ZM29.2 129.16L30.9582 128.207L30.3907 127.16H29.2V129.16ZM23.76 129.16V127.16H21.76V129.16H23.76ZM23.76 151V153H25.76V151H23.76ZM5.2 151H3.2V153H5.2V151ZM5.2 97.96H23.76V93.96H5.2V97.96ZM21.76 95.96V118.44H25.76V95.96H21.76ZM23.76 120.44H29.52V116.44H23.76V120.44ZM31.3277 119.296L41.9677 96.8156L38.3523 95.1044L27.7123 117.584L31.3277 119.296ZM40.16 97.96H58.64V93.96H40.16V97.96ZM56.64 95.96V99.56H60.64V95.96H56.64ZM56.8756 98.6182L44.2356 122.298L47.7644 124.182L60.4044 100.502L56.8756 98.6182ZM44.2845 124.268L58.7645 148.428L62.1955 146.372L47.7155 122.212L44.2845 124.268ZM58.48 147.4V151H62.48V147.4H58.48ZM60.48 149H41.04V153H60.48V149ZM42.7982 150.047L30.9582 128.207L27.4418 130.113L39.2818 151.953L42.7982 150.047ZM29.2 127.16H23.76V131.16H29.2V127.16ZM21.76 129.16V151H25.76V129.16H21.76ZM23.76 149H5.2V153H23.76V149ZM7.2 151V95.96H3.2V151H7.2ZM76.0131 148.6L75.0436 150.349L75.0525 150.354L76.0131 148.6ZM65.6131 138.44L63.8688 139.419L63.876 139.431L63.8832 139.444L65.6131 138.44ZM65.6131 108.6L63.8779 107.605L63.8734 107.613L63.8688 107.621L65.6131 108.6ZM76.0131 98.44L76.9664 100.198L76.9738 100.194L76.0131 98.44ZM106.653 98.44L105.684 100.189L105.696 100.196L105.709 100.203L106.653 98.44ZM117.053 108.6L115.309 109.578L115.316 109.591L115.323 109.604L117.053 108.6ZM117.053 138.44L115.318 137.445L115.314 137.452L117.053 138.44ZM106.653 148.6L107.614 150.354L106.653 148.6ZM99.6131 133.8L98.0793 132.517L98.0715 132.526L98.0638 132.535L99.6131 133.8ZM101.373 115.96L99.5348 116.748L99.5463 116.775L99.5585 116.801L101.373 115.96ZM97.2931 110.76L96.1168 112.377L96.133 112.389L96.1495 112.401L97.2931 110.76ZM85.3731 110.76L86.5167 112.401L86.5332 112.389L86.5495 112.377L85.3731 110.76ZM81.2931 115.96L83.1244 116.764L83.128 116.756L83.1314 116.748L81.2931 115.96ZM91.3731 150.28C85.9054 150.28 81.1233 149.118 76.9738 146.846L75.0525 150.354C79.863 152.988 85.3209 154.28 91.3731 154.28V150.28ZM76.9826 146.851C72.8677 144.57 69.6657 141.439 67.343 137.436L63.8832 139.444C66.5739 144.081 70.3052 147.723 75.0436 150.349L76.9826 146.851ZM67.3574 137.461C65.0891 133.418 63.9331 128.801 63.9331 123.56H59.9331C59.9331 129.412 61.2305 134.715 63.8688 139.419L67.3574 137.461ZM63.9331 123.56C63.9331 118.262 65.0906 113.619 67.3574 109.578L63.8688 107.621C61.2289 112.327 59.9331 117.658 59.9331 123.56H63.9331ZM67.3483 109.595C69.6705 105.543 72.8666 102.421 76.9664 100.198L75.0599 96.6818C70.3064 99.259 66.5691 102.91 63.8779 107.605L67.3483 109.595ZM76.9738 100.194C81.1233 97.9218 85.9054 96.76 91.3731 96.76V92.76C85.3209 92.76 79.863 94.0515 75.0525 96.6858L76.9738 100.194ZM91.3731 96.76C96.8414 96.76 101.593 97.922 105.684 100.189L107.623 96.6907C102.86 94.0514 97.4248 92.76 91.3731 92.76V96.76ZM105.709 100.203C109.858 102.426 113.045 105.542 115.309 109.578L118.797 107.621C116.155 102.911 112.409 99.2544 107.598 96.677L105.709 100.203ZM115.323 109.604C117.631 113.58 118.813 118.212 118.813 123.56H122.813C122.813 117.602 121.489 112.26 118.783 107.596L115.323 109.604ZM118.813 123.56C118.813 128.794 117.634 133.405 115.318 137.445L118.788 139.435C121.486 134.729 122.813 129.42 122.813 123.56H118.813ZM115.314 137.452C113.049 141.44 109.857 144.566 105.692 146.846L107.614 150.354C112.41 147.728 116.15 144.08 118.792 139.428L115.314 137.452ZM105.692 146.846C101.54 149.12 96.7841 150.28 91.3731 150.28V154.28C97.3755 154.28 102.806 152.987 107.614 150.354L105.692 146.846ZM91.3731 139.72C95.3366 139.72 98.6511 138.141 101.162 135.065L98.0638 132.535C96.3085 134.685 94.1297 135.72 91.3731 135.72V139.72ZM101.147 135.083C103.705 132.027 104.893 128.094 104.893 123.48H100.893C100.893 127.399 99.895 130.347 98.0793 132.517L101.147 135.083ZM104.893 123.48C104.893 120.413 104.343 117.611 103.188 115.119L99.5585 116.801C100.43 118.682 100.893 120.894 100.893 123.48H104.893ZM103.211 115.172C102.125 112.636 100.544 110.588 98.4367 109.119L96.1495 112.401C97.5627 113.386 98.7016 114.804 99.5348 116.748L103.211 115.172ZM98.4695 109.143C96.3571 107.606 93.9426 106.84 91.2931 106.84V110.84C93.1237 110.84 94.7092 111.354 96.1168 112.377L98.4695 109.143ZM91.2931 106.84C88.686 106.84 86.3004 107.613 84.1968 109.143L86.5495 112.377C87.9659 111.347 89.527 110.84 91.2931 110.84V106.84ZM84.2295 109.119C82.1227 110.588 80.5416 112.636 79.4548 115.172L83.1314 116.748C83.9647 114.804 85.1036 113.386 86.5167 112.401L84.2295 109.119ZM79.4618 115.156C78.3721 117.638 77.8531 120.427 77.8531 123.48H81.8531C81.8531 120.88 82.2942 118.655 83.1244 116.764L79.4618 115.156ZM77.8531 123.48C77.8531 128.083 79.0088 132.008 81.5038 135.065L84.6024 132.535C82.8307 130.365 81.8531 127.41 81.8531 123.48H77.8531ZM81.5038 135.065C84.0222 138.15 87.3674 139.72 91.3731 139.72V135.72C88.5522 135.72 86.3508 134.677 84.6024 132.535L81.5038 135.065ZM128.481 95.96V93.96H126.481V95.96H128.481ZM144.561 95.96L146.17 94.7718L145.57 93.96H144.561V95.96ZM166.481 125.64L164.872 126.828L168.481 131.715V125.64H166.481ZM166.481 95.96V93.96H164.481V95.96H166.481ZM180.801 95.96H182.801V93.96H180.801V95.96ZM180.801 151V153H182.801V151H180.801ZM164.801 151L163.217 152.221L163.818 153H164.801V151ZM142.721 122.36L144.305 121.139L140.721 116.49V122.36H142.721ZM142.721 151V153H144.721V151H142.721ZM128.481 151H126.481V153H128.481V151ZM128.481 97.96H144.561V93.96H128.481V97.96ZM142.952 97.1482L164.872 126.828L168.09 124.452L146.17 94.7718L142.952 97.1482ZM168.481 125.64V95.96H164.481V125.64H168.481ZM166.481 97.96H180.801V93.96H166.481V97.96ZM178.801 95.96V151H182.801V95.96H178.801ZM180.801 149H164.801V153H180.801V149ZM166.385 149.779L144.305 121.139L141.137 123.581L163.217 152.221L166.385 149.779ZM140.721 122.36V151H144.721V122.36H140.721ZM142.721 149H128.481V153H142.721V149ZM130.481 151V95.96H126.481V151H130.481ZM191.216 95.96V93.96H189.216V95.96H191.216ZM229.856 95.96H231.856V93.96H229.856V95.96ZM229.856 108.12V110.12H231.856V108.12H229.856ZM210.656 108.12V106.12H208.656V108.12H210.656ZM210.656 118.12H208.656V120.12H210.656V118.12ZM228.176 118.12H230.176V116.12H228.176V118.12ZM228.176 128.2V130.2H230.176V128.2H228.176ZM210.656 128.2V126.2H208.656V128.2H210.656ZM210.656 138.84H208.656V140.84H210.656V138.84ZM229.856 138.84H231.856V136.84H229.856V138.84ZM229.856 151V153H231.856V151H229.856ZM191.216 151H189.216V153H191.216V151ZM191.216 97.96H229.856V93.96H191.216V97.96ZM227.856 95.96V108.12H231.856V95.96H227.856ZM229.856 106.12H210.656V110.12H229.856V106.12ZM208.656 108.12V118.12H212.656V108.12H208.656ZM210.656 120.12H228.176V116.12H210.656V120.12ZM226.176 118.12V128.2H230.176V118.12H226.176ZM228.176 126.2H210.656V130.2H228.176V126.2ZM208.656 128.2V138.84H212.656V128.2H208.656ZM210.656 140.84H229.856V136.84H210.656V140.84ZM227.856 138.84V151H231.856V138.84H227.856ZM229.856 149H191.216V153H229.856V149ZM193.216 151V95.96H189.216V151H193.216ZM238.794 95.96V93.96H236.794V95.96H238.794ZM257.354 95.96H259.354V93.96H257.354V95.96ZM257.354 118.44H255.354V120.44H257.354V118.44ZM263.114 118.44V120.44H264.38L264.921 119.296L263.114 118.44ZM273.754 95.96V93.96H272.488L271.946 95.1044L273.754 95.96ZM292.234 95.96H294.234V93.96H292.234V95.96ZM292.234 99.56L293.998 100.502L294.234 100.06V99.56H292.234ZM279.594 123.24L277.829 122.298L277.296 123.297L277.878 124.268L279.594 123.24ZM294.074 147.4H296.074V146.847L295.789 146.372L294.074 147.4ZM294.074 151V153H296.074V151H294.074ZM274.634 151L272.876 151.953L273.443 153H274.634V151ZM262.794 129.16L264.552 128.207L263.984 127.16H262.794V129.16ZM257.354 129.16V127.16H255.354V129.16H257.354ZM257.354 151V153H259.354V151H257.354ZM238.794 151H236.794V153H238.794V151ZM238.794 97.96H257.354V93.96H238.794V97.96ZM255.354 95.96V118.44H259.354V95.96H255.354ZM257.354 120.44H263.114V116.44H257.354V120.44ZM264.921 119.296L275.561 96.8156L271.946 95.1044L261.306 117.584L264.921 119.296ZM273.754 97.96H292.234V93.96H273.754V97.96ZM290.234 95.96V99.56H294.234V95.96H290.234ZM290.469 98.6182L277.829 122.298L281.358 124.182L293.998 100.502L290.469 98.6182ZM277.878 124.268L292.358 148.428L295.789 146.372L281.309 122.212L277.878 124.268ZM292.074 147.4V151H296.074V147.4H292.074ZM294.074 149H274.634V153H294.074V149ZM276.392 150.047L264.552 128.207L261.035 130.113L272.876 151.953L276.392 150.047ZM262.794 127.16H257.354V131.16H262.794V127.16ZM255.354 129.16V151H259.354V129.16H255.354ZM257.354 149H238.794V153H257.354V149ZM240.794 151V95.96H236.794V151H240.794ZM307.119 108.12H309.119V106.12H307.119V108.12ZM295.679 108.12H293.679V110.12H295.679V108.12ZM295.679 95.96V93.96H293.679V95.96H295.679ZM337.199 95.96H339.199V93.96H337.199V95.96ZM337.199 108.12V110.12H339.199V108.12H337.199ZM325.759 108.12V106.12H323.759V108.12H325.759ZM325.759 151V153H327.759V151H325.759ZM307.119 151H305.119V153H307.119V151ZM307.119 106.12H295.679V110.12H307.119V106.12ZM297.679 108.12V95.96H293.679V108.12H297.679ZM295.679 97.96H337.199V93.96H295.679V97.96ZM335.199 95.96V108.12H339.199V95.96H335.199ZM337.199 106.12H325.759V110.12H337.199V106.12ZM323.759 108.12V151H327.759V108.12H323.759ZM325.759 149H307.119V153H325.759V149ZM309.119 151V108.12H305.119V151H309.119ZM344.731 95.96V93.96H342.731V95.96H344.731ZM363.211 95.96H365.211V93.96H363.211V95.96ZM363.211 151V153H365.211V151H363.211ZM344.731 151H342.731V153H344.731V151ZM344.731 97.96H363.211V93.96H344.731V97.96ZM361.211 95.96V151H365.211V95.96H361.211ZM363.211 149H344.731V153H363.211V149ZM346.731 151V95.96H342.731V151H346.731ZM368.598 95.96V93.96H365.918L366.68 96.5286L368.598 95.96ZM386.677 95.96L388.619 95.4803L388.243 93.96H386.677V95.96ZM395.158 130.28L393.216 130.76H397.099L395.158 130.28ZM403.638 95.96V93.96H402.072L401.696 95.4803L403.638 95.96ZM422.518 95.96L424.426 96.5565L425.238 93.96H422.518V95.96ZM405.318 151V153H406.788L407.226 151.597L405.318 151ZM384.918 151L383 151.569L383.424 153H384.918V151ZM368.598 97.96H386.677V93.96H368.598V97.96ZM384.736 96.4397L393.216 130.76L397.099 129.8L388.619 95.4803L384.736 96.4397ZM397.099 130.76L405.579 96.4397L401.696 95.4803L393.216 129.8L397.099 130.76ZM403.638 97.96H422.518V93.96H403.638V97.96ZM420.609 95.3634L403.409 150.403L407.226 151.597L424.426 96.5565L420.609 95.3634ZM405.318 149H384.918V153H405.318V149ZM386.835 150.431L370.515 95.3914L366.68 96.5286L383 151.569L386.835 150.431ZM427.388 95.96V93.96H425.388V95.96H427.388ZM445.867 95.96H447.867V93.96H445.867V95.96ZM445.867 151V153H447.867V151H445.867ZM427.388 151H425.388V153H427.388V151ZM427.388 97.96H445.867V93.96H427.388V97.96ZM443.867 95.96V151H447.867V95.96H443.867ZM445.867 149H427.388V153H445.867V149ZM429.388 151V95.96H425.388V151H429.388ZM464.854 108.12H466.854V106.12H464.854V108.12ZM453.414 108.12H451.414V110.12H453.414V108.12ZM453.414 95.96V93.96H451.414V95.96H453.414ZM494.934 95.96H496.934V93.96H494.934V95.96ZM494.934 108.12V110.12H496.934V108.12H494.934ZM483.494 108.12V106.12H481.494V108.12H483.494ZM483.494 151V153H485.494V151H483.494ZM464.854 151H462.854V153H464.854V151ZM464.854 106.12H453.414V110.12H464.854V106.12ZM455.414 108.12V95.96H451.414V108.12H455.414ZM453.414 97.96H494.934V93.96H453.414V97.96ZM492.934 95.96V108.12H496.934V95.96H492.934ZM494.934 106.12H483.494V110.12H494.934V106.12ZM481.494 108.12V151H485.494V108.12H481.494ZM483.494 149H464.854V153H483.494V149ZM466.854 151V108.12H462.854V151H466.854ZM508.803 95.96V93.96H507.281L506.875 95.4276L508.803 95.96ZM533.123 95.96L535.044 95.4043L534.627 93.96H533.123V95.96ZM549.043 151V153H551.704L550.964 150.444L549.043 151ZM530.243 151L528.281 151.387L528.599 153H530.243V151ZM528.163 140.44L530.125 140.053L529.808 138.44H528.163V140.44ZM513.923 140.44V138.44H512.315L511.97 140.011L513.923 140.44ZM511.603 151V153H513.211L513.557 151.429L511.603 151ZM493.603 151L491.675 150.468L490.976 153H493.603V151ZM526.243 130.6V132.6H528.721L528.198 130.178L526.243 130.6ZM521.043 106.52L522.998 106.098L519.092 106.079L521.043 106.52ZM515.603 130.6L513.652 130.159L513.101 132.6H515.603V130.6ZM508.803 97.96H533.123V93.96H508.803V97.96ZM531.202 96.5157L547.122 151.556L550.964 150.444L535.044 95.4043L531.202 96.5157ZM549.043 149H530.243V153H549.043V149ZM532.205 150.613L530.125 140.053L526.201 140.827L528.281 151.387L532.205 150.613ZM528.163 138.44H513.923V142.44H528.163V138.44ZM511.97 140.011L509.65 150.571L513.557 151.429L515.877 140.869L511.97 140.011ZM511.603 149H493.603V153H511.603V149ZM495.531 151.532L510.731 96.4924L506.875 95.4276L491.675 150.468L495.531 151.532ZM528.198 130.178L522.998 106.098L519.088 106.942L524.288 131.022L528.198 130.178ZM519.092 106.079L513.652 130.159L517.554 131.041L522.994 106.961L519.092 106.079ZM515.603 132.6H526.243V128.6H515.603V132.6ZM552.341 148.12L550.437 147.506L549.925 149.094L551.396 149.883L552.341 148.12ZM556.341 135.72L557.017 133.838L555.072 133.139L554.437 135.106L556.341 135.72ZM576.181 137.88L577.075 139.669L577.092 139.66L577.109 139.652L576.181 137.88ZM576.981 133.4L575.566 134.814L575.6 134.848L575.635 134.88L576.981 133.4ZM573.461 131.48L574.194 129.619L573.461 131.48ZM565.541 128.92L564.972 130.838L564.98 130.84L564.987 130.842L565.541 128.92ZM555.461 122.68L553.913 123.946L553.918 123.953L553.924 123.96L555.461 122.68ZM557.621 99.32L558.849 100.899L558.852 100.896L557.621 99.32ZM583.381 95.88L582.94 97.8309L582.955 97.8343L582.97 97.8374L583.381 95.88ZM592.181 99L594.064 99.6735L594.641 98.0584L593.133 97.2414L592.181 99ZM587.861 111.08L587.218 112.974L589.081 113.606L589.744 111.753L587.861 111.08ZM580.021 108.92L579.592 110.873L579.619 110.879L579.646 110.885L580.021 108.92ZM570.021 113.56L568.968 115.261L569.015 115.289L569.063 115.316L570.021 113.56ZM577.141 116.04L576.595 117.964L576.61 117.968L576.625 117.972L577.141 116.04ZM589.861 122.92L588.397 124.283L588.403 124.289L588.409 124.295L589.861 122.92ZM588.421 147.56L589.688 149.107L589.695 149.102L589.701 149.096L588.421 147.56ZM571.381 150.28C564.1 150.28 558.098 148.937 553.286 146.357L551.396 149.883C556.93 152.85 563.621 154.28 571.381 154.28V150.28ZM554.244 148.734L558.244 136.334L554.437 135.106L550.437 147.506L554.244 148.734ZM555.664 137.602C561.304 139.628 566.445 140.68 571.061 140.68V136.68C567.036 136.68 562.364 135.759 557.017 133.838L555.664 137.602ZM571.061 140.68C573.473 140.68 575.573 140.42 577.075 139.669L575.286 136.091C574.655 136.407 573.341 136.68 571.061 136.68V140.68ZM577.109 139.652C577.899 139.238 578.607 138.669 579.113 137.897C579.627 137.113 579.861 136.23 579.861 135.32H575.861C575.861 135.53 575.814 135.634 575.769 135.703C575.715 135.785 575.582 135.936 575.253 136.108L577.109 139.652ZM579.861 135.32C579.861 133.972 579.301 132.806 578.326 131.92L575.635 134.88C575.834 135.061 575.861 135.175 575.861 135.32H579.861ZM578.395 131.986C577.489 131.08 575.964 130.317 574.194 129.619L572.728 133.341C574.477 134.03 575.299 134.547 575.566 134.814L578.395 131.986ZM574.194 129.619C572.343 128.89 569.63 128.016 566.094 126.998L564.987 130.842C568.492 131.851 571.058 132.683 572.728 133.341L574.194 129.619ZM566.109 127.002C562.09 125.812 559.097 123.92 556.997 121.4L553.924 123.96C556.624 127.2 560.351 129.468 564.972 130.838L566.109 127.002ZM557.009 121.414C554.901 118.837 553.861 115.925 553.861 112.6H549.861C549.861 116.849 551.221 120.656 553.913 123.946L557.009 121.414ZM553.861 112.6C553.861 107.209 555.598 103.427 558.849 100.899L556.393 97.7413C551.964 101.186 549.861 106.258 549.861 112.6H553.861ZM558.852 100.896C562.293 98.209 567.04 96.76 573.301 96.76V92.76C566.441 92.76 560.735 94.351 556.39 97.7436L558.852 100.896ZM573.301 96.76C576.567 96.76 579.779 97.1171 582.94 97.8309L583.821 93.9291C580.369 93.1496 576.861 92.76 573.301 92.76V96.76ZM582.97 97.8374C586.117 98.4973 588.863 99.4775 591.228 100.759L593.133 97.2414C590.378 95.7492 587.257 94.6494 583.791 93.9226L582.97 97.8374ZM590.297 98.3265L585.977 110.407L589.744 111.753L594.064 99.6735L590.297 98.3265ZM588.503 109.186C585.459 108.153 582.753 107.404 580.395 106.955L579.646 110.885C581.768 111.289 584.289 111.98 587.218 112.974L588.503 109.186ZM580.449 106.967C578.133 106.458 575.855 106.2 573.621 106.2V110.2C575.546 110.2 577.535 110.422 579.592 110.873L580.449 106.967ZM573.621 106.2C571.744 106.2 570.022 106.445 568.703 107.164C568.013 107.54 567.399 108.066 566.964 108.777C566.527 109.493 566.341 110.284 566.341 111.08H570.341C570.341 110.916 570.374 110.867 570.377 110.863C570.383 110.854 570.428 110.78 570.618 110.676C571.059 110.435 571.977 110.2 573.621 110.2V106.2ZM566.341 111.08C566.341 112.978 567.503 114.353 568.968 115.261L571.073 111.859C570.68 111.616 570.497 111.417 570.416 111.298C570.351 111.202 570.341 111.143 570.341 111.08H566.341ZM569.063 115.316C570.462 116.079 573.046 116.958 576.595 117.964L577.686 114.116C574.088 113.096 571.926 112.321 570.978 111.804L569.063 115.316ZM576.625 117.972C581.992 119.404 585.852 121.549 588.397 124.283L591.324 121.557C588.11 118.104 583.489 115.663 577.656 114.108L576.625 117.972ZM588.409 124.295C590.929 126.956 592.181 130.114 592.181 133.88H596.181C596.181 129.112 594.552 124.964 591.312 121.545L588.409 124.295ZM592.181 133.88C592.181 139.328 590.439 143.275 587.14 146.024L589.701 149.096C594.083 145.445 596.181 140.272 596.181 133.88H592.181ZM587.153 146.013C583.814 148.749 578.666 150.28 571.381 150.28V154.28C579.135 154.28 585.347 152.664 589.688 149.107L587.153 146.013Z" fill="white" mask="url(#path-16-outside-1_68_3)"/>
<path d="M105.99 169.352H115.558L123.47 184.716L131.198 169.352H140.766V201H131.198V184.118L125.356 195.158H121.446L115.558 184.118V201H105.99V169.352ZM146.779 169.352H168.997V176.344H157.957V182.094H168.031V187.89H157.957V194.008H168.997V201H146.779V169.352ZM174.136 169.352H183.704L191.616 184.716L199.344 169.352H208.912V201H199.344V184.118L193.502 195.158H189.592L183.704 184.118V201H174.136V169.352ZM226.886 201.552C224.984 201.552 223.221 201.521 221.596 201.46C219.97 201.399 217.747 201.261 214.926 201.046V169.352H230.75C232.988 169.352 234.997 169.674 236.776 170.318C238.585 170.931 239.996 171.821 241.008 172.986C242.02 174.151 242.526 175.501 242.526 177.034C242.526 178.935 242.112 180.438 241.284 181.542C240.456 182.615 239.198 183.367 237.512 183.796C241.805 184.471 243.952 187.001 243.952 191.386C243.952 194.422 242.556 196.875 239.766 198.746C237.006 200.617 232.712 201.552 226.886 201.552ZM228.818 181.864C230.014 181.864 230.995 181.573 231.762 180.99C232.559 180.407 232.958 179.656 232.958 178.736C232.958 176.559 231.608 175.47 228.91 175.47H225.184V181.864H228.818ZM228.634 194.33C230.32 194.33 231.608 194.023 232.498 193.41C233.418 192.766 233.878 191.877 233.878 190.742C233.878 189.515 233.464 188.58 232.636 187.936C231.808 187.261 230.627 186.924 229.094 186.924H225.138V194.192C226.518 194.284 227.683 194.33 228.634 194.33ZM254.058 169.352H268.042L277.196 201H266.386L265.19 194.928H257.002L255.668 201H245.318L254.058 169.352ZM264.086 189.27L261.096 175.424L257.968 189.27H264.086ZM280.242 169.352H289.488L302.092 186.418V169.352H310.326V201H301.126L288.43 184.532V201H280.242V169.352ZM331.034 201.736C327.937 201.736 325.146 201 322.662 199.528C320.178 198.025 318.231 195.986 316.82 193.41C315.41 190.834 314.704 187.997 314.704 184.9C314.704 181.925 315.41 179.196 316.82 176.712C318.262 174.228 320.255 172.265 322.8 170.824C325.346 169.383 328.244 168.662 331.494 168.662C333.273 168.662 334.99 168.861 336.646 169.26C338.333 169.659 339.851 170.226 341.2 170.962L338.164 178.092C336.079 177.233 334.132 176.804 332.322 176.804C329.961 176.804 328.136 177.571 326.848 179.104C325.56 180.607 324.916 182.585 324.916 185.038C324.916 186.633 325.208 188.074 325.79 189.362C326.373 190.619 327.186 191.616 328.228 192.352C329.302 193.088 330.513 193.456 331.862 193.456C332.598 193.456 333.212 193.395 333.702 193.272V185.866L341.66 184.946V199.344C338.195 200.939 334.653 201.736 331.034 201.736ZM362 201.736C358.964 201.736 356.25 201.153 353.858 199.988C351.497 198.823 349.657 197.197 348.338 195.112C347.02 192.996 346.36 190.589 346.36 187.89V169.352H356.756V187.89C356.756 189.73 357.201 191.11 358.09 192.03C358.98 192.95 360.283 193.41 362 193.41C363.718 193.41 365.021 192.95 365.91 192.03C366.8 191.079 367.244 189.699 367.244 187.89V169.352H377.64V187.89C377.64 190.589 376.981 192.996 375.662 195.112C374.344 197.197 372.488 198.823 370.096 199.988C367.735 201.153 365.036 201.736 362 201.736ZM383.338 169.352H392.584L405.188 186.418V169.352H413.422V201H404.222L391.526 184.532V201H383.338V169.352ZM427.99 169.352H437.236L449.84 186.418V169.352H458.074V201H448.874L436.178 184.532V201H427.99V169.352ZM464.062 169.352H486.28V176.344H475.24V182.094H485.314V187.89H475.24V194.008H486.28V201H464.062V169.352ZM506.14 201.736C503.042 201.736 500.252 201 497.768 199.528C495.284 198.025 493.336 195.986 491.926 193.41C490.515 190.834 489.81 187.997 489.81 184.9C489.81 181.925 490.515 179.196 491.926 176.712C493.367 174.228 495.36 172.265 497.906 170.824C500.451 169.383 503.349 168.662 506.6 168.662C508.378 168.662 510.096 168.861 511.752 169.26C513.438 169.659 514.956 170.226 516.306 170.962L513.27 178.092C511.184 177.233 509.237 176.804 507.428 176.804C505.066 176.804 503.242 177.571 501.954 179.104C500.666 180.607 500.022 182.585 500.022 185.038C500.022 186.633 500.313 188.074 500.896 189.362C501.478 190.619 502.291 191.616 503.334 192.352C504.407 193.088 505.618 193.456 506.968 193.456C507.704 193.456 508.317 193.395 508.808 193.272V185.866L516.766 184.946V199.344C513.3 200.939 509.758 201.736 506.14 201.736ZM521.742 169.352H543.96V176.344H532.92V182.094H542.994V187.89H532.92V194.008H543.96V201H521.742V169.352ZM573.065 201.736C567.3 201.736 563.773 199.068 562.485 193.732L561.335 188.994H559.173V201H549.099V169.352H563.037C565.675 169.352 567.99 169.751 569.983 170.548C572.007 171.315 573.571 172.403 574.675 173.814C575.779 175.225 576.331 176.85 576.331 178.69C576.331 180.745 575.825 182.477 574.813 183.888C573.832 185.268 572.299 186.403 570.213 187.292C570.428 188.457 570.673 189.515 570.949 190.466C571.317 191.631 571.823 192.444 572.467 192.904C573.111 193.364 574.047 193.594 575.273 193.594C575.703 193.594 576.377 193.533 577.297 193.41V200.908C575.856 201.46 574.445 201.736 573.065 201.736ZM560.921 182.554C563.191 182.554 564.785 182.309 565.705 181.818C566.656 181.297 567.131 180.423 567.131 179.196C567.131 178.153 566.748 177.402 565.981 176.942C565.215 176.451 564.003 176.206 562.347 176.206H559.173V182.554H560.921ZM581.219 169.352H591.845V201H581.219V169.352Z" fill="#2C3182"/>
</svg>
